<svg id="图层_1" data-name="图层 1" xmlns="http://www.w3.org/2000/svg" xmlns:xlink="http://www.w3.org/1999/xlink" viewBox="0 0 1024 1024"><defs><style>.cls-1{fill:#0083ef;}.cls-2{fill:url(#未命名的渐变_185);}.cls-3{fill:#047cf8;}.cls-4{fill:url(#未命名的渐变_203);}.cls-5{fill:#3b9ffd;}.cls-6{fill:url(#未命名的渐变_137);}.cls-7{fill:url(#未命名的渐变_137-2);}.cls-8{fill:url(#未命名的渐变_26);}.cls-9{fill:url(#未命名的渐变_200);}.cls-10{fill:#0f82f8;opacity:0.32;}.cls-11{fill:url(#未命名的渐变_185-2);}.cls-12{fill:url(#未命名的渐变_203-2);}.cls-13{fill:url(#未命名的渐变_137-3);}.cls-14{fill:url(#未命名的渐变_137-4);}.cls-15{fill:url(#未命名的渐变_26-2);}.cls-16{fill:url(#未命名的渐变_200-2);}.cls-17{fill:#8bbdea;}.cls-18{fill:#b6dcff;}.cls-19{fill:#fff;}</style><linearGradient id="未命名的渐变_185" x1="369.65" y1="688.46" x2="354.71" y2="723.76" gradientUnits="userSpaceOnUse"><stop offset="0" stop-color="#45a3fd"/><stop offset="0.52" stop-color="#0089ff"/><stop offset="1" stop-color="#0079f7"/></linearGradient><linearGradient id="未命名的渐变_203" x1="351.64" y1="717.24" x2="351.64" y2="740.37" gradientUnits="userSpaceOnUse"><stop offset="0.01" stop-color="#047cf8"/><stop offset="1" stop-color="#0070f3"/></linearGradient><linearGradient id="未命名的渐变_137" x1="1403.94" y1="6133.74" x2="1415.91" y2="6162.82" gradientTransform="translate(0 -14339.23) scale(1 3.54)" gradientUnits="userSpaceOnUse"><stop offset="0.01" stop-color="#51a6f9"/><stop offset="1" stop-color="#0070f3"/></linearGradient><linearGradient id="未命名的渐变_137-2" x1="78.34" y1="335.61" x2="2041.04" y2="1140" gradientTransform="matrix(1, 0, 0, 1, 0, 0)" xlink:href="#未命名的渐变_137"/><linearGradient id="未命名的渐变_26" x1="433.96" y1="604.91" x2="561.13" y2="680.17" gradientUnits="userSpaceOnUse"><stop offset="0" stop-color="#0089ff"/><stop offset="1" stop-color="#0070f3"/></linearGradient><linearGradient id="未命名的渐变_200" x1="621.01" y1="535.16" x2="605.52" y2="571.76" gradientUnits="userSpaceOnUse"><stop offset="0" stop-color="#0070f3"/><stop offset="1" stop-color="#3b9ffd"/></linearGradient><linearGradient id="未命名的渐变_185-2" x1="373.53" y1="400.47" x2="349.75" y2="456.65" xlink:href="#未命名的渐变_185"/><linearGradient id="未命名的渐变_203-2" x1="351.64" y1="620.6" x2="351.64" y2="657.82" xlink:href="#未命名的渐变_203"/><linearGradient id="未命名的渐变_137-3" x1="1403.94" y1="6051.81" x2="1415.91" y2="6080.89" xlink:href="#未命名的渐变_137"/><linearGradient id="未命名的渐变_137-4" x1="78.34" y1="45.98" x2="2041.04" y2="850.37" gradientTransform="matrix(1, 0, 0, 1, 0, 0)" xlink:href="#未命名的渐变_137"/><linearGradient id="未命名的渐变_26-2" x1="390.53" y1="394.81" x2="596.7" y2="516.83" xlink:href="#未命名的渐变_26"/><linearGradient id="未命名的渐变_200-2" x1="621.01" y1="245.52" x2="605.52" y2="282.13" xlink:href="#未命名的渐变_200"/></defs><title>策略管理2.5D</title><path class="cls-1" d="M393.76,702.93l-27.65-16-17.35,10.32c-5,3-9,9.43-9,14.39v-2.53L365,723.73Z"/><path class="cls-2" d="M386.89,697.52,366.11,687l-17.35,10.32c-5,3-9,9.43-9,14.39l.09,5.79,20.58,8Z"/><path class="cls-3" d="M360.42,722.9v-1.82l-20.68-11.94v21c0,.32.06-15.85.09-15.56h0Z"/><path class="cls-1" d="M348.77,733.78l11.66-6.94V722.9l-20.58-8.33V731C340.31,735.24,344.12,736.54,348.77,733.78Z"/><path class="cls-4" d="M360.42,740.75V722.9l-20.58-8.33s-.42,13,0,16.43,2.7,3.95,2.7,3.95l21.09,11v-.28C361.69,745.16,360.42,743.48,360.42,740.75Z"/><path class="cls-1" d="M363.63,724.2v.74l253.78-151c5-3,9-9.43,9-14.39V555L382.17,702.57h0L365,723.73l-4.57-2.64v1.82Z"/><polygon class="cls-1" points="360.43 722.9 360.43 726.84 363.63 724.94 363.63 724.2 360.43 722.9"/><polygon class="cls-5" points="366.11 686.97 385.66 698.25 601.27 569.96 582.51 558.2 366.11 686.97"/><polygon class="cls-6" points="601.27 569.96 601.27 569.96 626.43 554.99 601.27 569.96"/><path class="cls-7" d="M644.7,547.06c-1.65-.82-4-.57-6.62,1L626.43,555l-25.16,15,3,1.86Z"/><path class="cls-8" d="M644.7,547.06c-1.65-.82-4-.57-6.62,1L626.43,555l-25.16,15L387.37,697.24l-16.22,9.65c-6.67,4-10.72,10.44-10.72,15.4v18.46c0,2.74,1.26,4.42,3.2,4.92a7.78,7.78,0,0,0,5.82-1.27L638.09,584.54c5-3,9-9.43,9-14.39V551.7C647.11,549.36,646.18,547.79,644.7,547.06Z"/><path class="cls-1" d="M626.43,541.08c0-5-4.06-6.6-9-3.65l-34.9,20.77L601.27,570l25.16-15Z"/><path class="cls-9" d="M624.27,536.54l-.05,0c-1.66-.94-4.08-.75-6.81.87l-34.9,20.77L601.27,570l25.16-15,11.66-6.94c2.62-1.56,5-1.8,6.62-1l0,0Z"/><polygon class="cls-10" points="345.44 784.56 386.66 809 662.09 644.67 621.03 620.14 345.44 784.56"/><path class="cls-1" d="M393.76,413.29l-27.65-16-17.35,10.32c-5,3-9,9.43-9,14.39v26.49L365,463.11Z"/><path class="cls-11" d="M393.76,413.29l-27.65-16-17.35,10.32c-5,3-9,9.43-9,14.39v26.49L365,463.11Z"/><path class="cls-3" d="M360.42,624.64V460.47l-20.68-11.94V651c0,.32.06-35,.09-34.67h0Z"/><path class="cls-1" d="M348.77,654.63l11.66-6.94V624.64l-20.58-8.33v35.54C340.31,656.09,344.12,657.39,348.77,654.63Z"/><path class="cls-12" d="M360.42,661.59v-37l-20.58-8.33s-.42,32.1,0,35.54,2.7,3.95,2.7,3.95l21.09,11v-.28C361.69,666,360.42,664.33,360.42,661.59Z"/><path class="cls-1" d="M363.63,625.93v19.85l253.78-151c5-3,9-9.43,9-14.39v-215L385.66,408.62l8.1,4.67L365,463.11l-4.57-2.64V624.64Z"/><polygon class="cls-1" points="360.43 624.64 360.43 647.69 363.63 645.78 363.63 625.93 360.43 624.64"/><polygon class="cls-5" points="366.11 397.33 385.66 408.62 601.27 280.33 582.51 268.56 366.11 397.33"/><polygon class="cls-13" points="601.27 280.33 601.27 280.33 626.43 265.35 601.27 280.33"/><path class="cls-14" d="M644.7,257.43c-1.65-.82-4-.57-6.62,1l-11.66,6.94-25.16,15,3,1.86Z"/><path class="cls-15" d="M644.7,257.43c-1.65-.82-4-.57-6.62,1l-11.66,6.94-25.16,15L385.66,408.62l-16.22,9.65c-5,3-9,9.43-9,14.39V661.59c0,2.74,1.26,4.42,3.2,4.92a7.78,7.78,0,0,0,5.82-1.27L638.09,505.39c5-3,9-9.43,9-14.39V262.07C647.11,259.73,646.18,258.16,644.7,257.43Z"/><path class="cls-1" d="M626.43,251.45c0-5-4.06-6.6-9-3.65l-34.9,20.77,18.76,11.76,25.16-15Z"/><path class="cls-16" d="M624.27,246.9l-.05,0c-1.66-.94-4.08-.75-6.81.87l-34.9,20.77,18.76,11.76,25.16-15,11.66-6.94c2.62-1.56,5-1.8,6.62-1l0,0Z"/><polygon class="cls-17" points="483.31 464.38 477.19 459.93 477.19 442.87 483.31 447.32 483.31 464.38"/><polygon class="cls-18" points="483.31 447.32 477.19 442.87 629.44 354.75 635.55 359.2 483.31 447.32"/><polygon class="cls-19" points="635.55 359.2 635.55 376.26 483.31 464.38 483.31 447.32 635.55 359.2"/><polygon class="cls-18" points="416.47 496.62 408.19 490.59 452.23 431.3 460.51 437.32 416.47 496.62"/><polygon class="cls-17" points="414.25 511.92 405.96 505.89 386.18 490.62 394.47 496.64 414.25 511.92"/><polygon class="cls-18" points="394.47 496.64 386.18 490.62 394.2 479.8 402.48 485.82 394.47 496.64"/><polygon class="cls-19" points="416.46 496.62 460.5 437.32 466.29 441.85 414.24 511.92 394.46 496.64 402.47 485.82 416.46 496.62"/><polygon class="cls-17" points="483.31 549.53 477.19 545.09 477.19 528.03 483.31 532.48 483.31 549.53"/><polygon class="cls-18" points="483.31 532.48 477.19 528.03 629.44 439.91 635.55 444.36 483.31 532.48"/><polygon class="cls-19" points="635.55 444.36 635.55 461.42 483.31 549.53 483.31 532.48 635.55 444.36"/><polygon class="cls-18" points="416.47 581.77 408.19 575.75 452.23 516.45 460.51 522.48 416.47 581.77"/><polygon class="cls-17" points="414.25 597.08 405.96 591.05 386.18 575.77 394.47 581.8 414.25 597.08"/><polygon class="cls-18" points="394.47 581.8 386.18 575.77 394.2 564.95 402.48 570.98 394.47 581.8"/><polygon class="cls-19" points="416.46 581.77 460.5 522.48 466.29 527 414.24 597.08 394.46 581.8 402.47 570.98 416.46 581.77"/></svg>